<?xml version="1.0" encoding="utf-8"?>
<!-- Generator: Adobe Illustrator 24.1.0, SVG Export Plug-In . SVG Version: 6.00 Build 0)  -->
<svg version="1.1" id="Capa_1" xmlns="http://www.w3.org/2000/svg" xmlns:xlink="http://www.w3.org/1999/xlink" x="0px" y="0px"
	 viewBox="0 0 512 512" style="enable-background:new 0 0 512 512;" xml:space="preserve">
<g>
	<path d="M281.9,181l7.5,19.8c2.3,6,8,9.7,14,9.7c1.8,0,3.5-0.3,5.3-1c7.8-2.9,11.7-11.6,8.7-19.3L272.8,71.9
		c-0.1-0.1-0.1-0.3-0.2-0.4c-2.7-6.7-9.2-11-16.4-11c0,0,0,0,0,0c-7.2,0-13.7,4.3-16.4,11c0,0.1-0.1,0.2-0.1,0.3l-45.1,118.3
		c-2.9,7.7,0.9,16.4,8.7,19.4c7.7,3,16.4-0.9,19.4-8.7l7.5-19.8L281.9,181L281.9,181z M256.2,112.9l14.4,38.2h-28.9L256.2,112.9z"/>
	<path d="M169.5,367.3c4.3-6.7,6.9-14.6,6.9-23.1c0-23.5-19.1-42.6-42.6-42.6H98.9c-8.3,0-15,6.7-15,15v120c0,4,1.6,7.8,4.4,10.6
		c2.8,2.8,6.6,4.4,10.6,4.4h0.1c0.3,0,32.2-0.1,40.9-0.1c26.1,0,47.3-21.2,47.3-47.3C187.1,389.2,180.2,375.9,169.5,367.3z
		 M133.7,331.5c7,0,12.6,5.7,12.6,12.6s-5.7,12.6-12.6,12.6c-2.6,0-19.9,0-19.9,0v-25.3H133.7z M139.8,421.4c-4.8,0-16.3,0-25.9,0.1
		v-34.7c2.4,0,25.9,0,25.9,0c9.5,0,17.3,7.8,17.3,17.3C157.1,413.6,149.4,421.4,139.8,421.4L139.8,421.4z"/>
	<path d="M497,241H391.5V15c0-8.3-6.7-15-15-15h-241c-8.3,0-15,6.7-15,15v226H15c-8.3,0-15,6.7-15,15v241c0,8.3,6.7,15,15,15h482
		c8.3,0,15-6.7,15-15V256C512,247.7,505.3,241,497,241z M150.5,30h211v211h-211V30z M30,271h211v211H30V271z M482,482H271V271h211
		V482z"/>
	<path d="M312.6,376.5c0,41.4,33.6,75,75,75c16.5,0,31.4-5.4,42.9-15.7c2.3-2,4.4-4.2,6.4-6.6c5.3-6.3,4.5-15.8-1.9-21.1
		c-6.4-5.3-15.8-4.5-21.1,1.9c-1,1.2-2.2,2.4-3.4,3.5c-6,5.4-13.8,8.1-23,8.1c-24.8,0-45-20.2-45-45s20.2-45,45-45
		c9,0,17.7,2.7,25.1,7.7c6.9,4.6,16.2,2.8,20.8-4c4.6-6.9,2.8-16.2-4-20.8c-12.4-8.4-26.9-12.8-41.9-12.8
		C346.2,301.5,312.6,335.1,312.6,376.5z"/>
</g>
</svg>
