<svg xmlns="http://www.w3.org/2000/svg" width="31.88" height="32" viewBox="0 0 31.88 32">
  <defs>
    <style>
      .cls-1 {
        fill-rule: evenodd;
        opacity: 0.23;
      }
    </style>
  </defs>
  <path id="Heart1" class="cls-1" d="M1084.66,2489.01a9.24,9.24,0,0,0-7.17,3.64,9.244,9.244,0,0,0-7.18-3.64c-4.9,0-8.76,4.22-8.76,9.59,0,6.59,5.42,11.96,13.63,20.13l2.31,2.28,2.31-2.3c8.21-8.15,13.63-13.52,13.63-20.11,0-5.37-3.86-9.59-8.77-9.59h0Zm-7.01,27.12-0.16.17-0.16-.17c-7.59-7.52-12.6-12.49-12.6-17.53,0-3.49,2.4-6.1,5.58-6.1a6.255,6.255,0,0,1,5.7,4.11h2.98a6.2,6.2,0,0,1,5.67-4.11c3.19,0,5.58,2.61,5.58,6.1,0,5.04-5,10.01-12.59,17.53h0Z" transform="translate(-1061.56 -2489)"/>
</svg>
