<?xml version="1.0" encoding="iso-8859-1"?>
<!-- Generator: Adobe Illustrator 19.0.0, SVG Export Plug-In . SVG Version: 6.00 Build 0)  -->
<svg version="1.1" id="Capa_1" xmlns="http://www.w3.org/2000/svg" xmlns:xlink="http://www.w3.org/1999/xlink" x="0px" y="0px"
	 viewBox="0 0 512 512" style="enable-background:new 0 0 512 512;" xml:space="preserve">
<g>
	<g>
		<path d="M467,90h-15V45c0-24.813-20.187-45-45-45H45C20.187,0,0,20.187,0,45v120c0,24.813,20.187,45,45,45h362
			c24.813,0,45-20.187,45-45v-45h15c8.271,0,15,6.729,15,15v60c0,24.813-20.187,45-45,45H256c-24.813,0-45,20.187-45,45v45h-45
			c-8.284,0-15,6.716-15,15s6.716,15,15,15h15v107c0,24.813,20.187,45,45,45s45-20.187,45-45V360h15c8.284,0,15-6.716,15-15
			s-6.716-15-15-15h-45v-45c0-8.271,6.729-15,15-15h181c41.355,0,75-33.645,75-75v-60C512,110.187,491.813,90,467,90z M422,165
			c0,8.271-6.729,15-15,15H45c-8.271,0-15-6.729-15-15v-17.58c4.695,1.665,9.742,2.58,15,2.58c24.813,0,45-20.188,45-45.001
			C90,97.009,97.477,90,106,90c8.271,0,15,6.729,15,15c0,24.813,20.187,45,45,45s45-20.187,45-45c0-8.271,6.729-15,15-15
			s15,6.729,15,15c0,24.813,20.187,45,45,45s45-20.188,45-45.001C331,96.729,337.729,90,346,90s15,6.729,15,15
			c0,12.089,4.944,23.474,13.922,32.056C383.653,145.403,395.046,150,407,150c5.259,0,10.305-0.915,15-2.58V165z M422,105
			c0,8.271-6.729,15-15,15c-8.523,0-16-7.009-16-15c0-24.813-20.187-45-45-45s-45,20.187-45,45c0,8.271-6.729,15-15,15
			s-15-6.729-15-15c0-24.813-20.187-45-45-45s-45,20.187-45,44.999c0,8.271-6.729,15-15,15s-15-6.729-15-15
			c0-24.813-20.187-45-45-45c-11.955,0-23.347,4.597-32.079,12.944C64.944,81.526,60,92.911,60,105c0,8.271-6.729,15-15,15
			s-15-6.729-15-15V45c0-8.271,6.729-15,15-15h362c8.271,0,15,6.729,15,15V105z M241,467c0,8.271-6.729,15-15,15s-15-6.729-15-15
			V360h30V467z"/>
	</g>
</g>
<g>
</g>
<g>
</g>
<g>
</g>
<g>
</g>
<g>
</g>
<g>
</g>
<g>
</g>
<g>
</g>
<g>
</g>
<g>
</g>
<g>
</g>
<g>
</g>
<g>
</g>
<g>
</g>
<g>
</g>
</svg>
