<svg id="Capa_1" enable-background="new 0 0 512 512" height="512" viewBox="0 0 512 512" width="512" xmlns="http://www.w3.org/2000/svg"><path d="m464.867 216.9h-68.622l-23.21-92.828c-5.253-21.022-24.055-35.705-45.722-35.705h-203.614c-23.723 0-43.829 17.751-46.769 41.287-3.387 27.084-8.356 66.844-10.906 87.246h-18.891c-25.989 0-47.133 21.144-47.133 47.133v96.4c0 8.284 6.716 15 15 15h35.014c6.753 27.629 31.706 48.2 61.386 48.2s54.634-20.571 61.387-48.2h166.427c6.753 27.629 31.706 48.2 61.387 48.2s54.633-20.571 61.386-48.2h35.013c8.284 0 15-6.716 15-15v-96.4c0-25.989-21.144-47.133-47.133-47.133zm-120.937-85.553 21.391 85.553h-65.476l-24.633-98.533h52.1c7.875 0 14.708 5.336 16.618 12.98zm-220.231-12.98h120.589l24.633 98.533h-172.663c2.653-21.228 7.249-58.002 10.441-83.525 1.069-8.557 8.377-15.008 17-15.008zm-93.699 145.666c0-9.447 7.686-17.133 17.133-17.133h32.133 193.867v98.533h-100.347c-6.753-27.629-31.706-48.2-61.387-48.2s-54.633 20.57-61.386 48.2h-20.013zm81.4 129.6c-18.306 0-33.2-14.894-33.2-33.2s14.894-33.2 33.2-33.2c18.307 0 33.2 14.894 33.2 33.2 0 18.307-14.893 33.2-33.2 33.2zm289.2 0c-18.307 0-33.2-14.894-33.2-33.2s14.894-33.2 33.2-33.2 33.2 14.894 33.2 33.2c0 18.307-14.894 33.2-33.2 33.2zm81.4-48.2h-20.014c-6.753-27.629-31.706-48.2-61.386-48.2s-54.634 20.57-61.387 48.2h-36.08v-98.533h81.4 80.333c9.447 0 17.133 7.686 17.133 17.133v81.4z"/></svg>