<?xml version="1.0" encoding="iso-8859-1"?>
<!-- Generator: Adobe Illustrator 19.0.0, SVG Export Plug-In . SVG Version: 6.00 Build 0)  -->
<svg version="1.1" id="Layer_1" xmlns="http://www.w3.org/2000/svg" xmlns:xlink="http://www.w3.org/1999/xlink" x="0px" y="0px"
	 viewBox="0 0 512 512" style="enable-background:new 0 0 512 512;" xml:space="preserve">
<g>
	<g>
		<path d="M442.818,0H69.182C44.563,0,24.604,19.959,24.604,44.578v422.843c0,24.621,19.959,44.579,44.578,44.579h373.636
			c24.619,0,44.578-19.959,44.578-44.578V44.578C487.396,19.959,467.437,0,442.818,0z M59.753,44.897c0-5.2,4.653-9.748,9.851-9.748
			h373.964c5.2,0,9.851,4.548,9.851,9.748v58.206H59.753V44.897z M453.419,468.275c0,5.2-4.653,9.748-9.851,9.748H69.604
			c-5.2,0-9.851-4.548-9.851-9.748V138.252h393.666V468.275z"/>
	</g>
</g>
<g>
	<g>
		<path d="M255.94,230.437c-42.828,0-77.669,34.843-77.669,77.671c0,42.828,34.842,77.669,77.669,77.669
			c42.828,0,77.671-34.843,77.671-77.669C333.611,265.28,298.768,230.437,255.94,230.437z M255.94,350.63
			c-23.447,0-42.521-19.075-42.521-42.521c0-23.447,19.074-42.522,42.521-42.522s42.522,19.075,42.522,42.522
			C298.462,331.555,279.387,350.63,255.94,350.63z"/>
	</g>
</g>
<g>
	<g>
		<path d="M176.915,52.723H99.588c-9.706,0-17.574,7.869-17.574,17.574s7.869,17.574,17.574,17.574h77.327
			c9.706,0,17.574-7.869,17.574-17.574S186.621,52.723,176.915,52.723z"/>
	</g>
</g>
<g>
	<g>
		<circle cx="406.858" cy="69.571" r="20.338"/>
	</g>
</g>
<g>
	<g>
		<circle cx="350.105" cy="69.571" r="20.338"/>
	</g>
</g>
<g>
	<g>
		<path d="M398.352,268.302c-2.275,0-4.443,0.446-6.439,1.234c-16.828-59.239-71.414-102.753-135.973-102.753
			c-77.927,0-141.324,63.398-141.324,141.325c0,77.926,63.397,141.324,141.324,141.324c64.54,0,119.114-43.487,135.959-102.699
			c2,0.791,4.172,1.24,6.453,1.24c9.706,0,17.574-7.869,17.574-17.574v-44.522C415.927,276.171,408.058,268.302,398.352,268.302z
			 M255.94,414.283c-58.545,0-106.175-47.63-106.175-106.175s47.63-106.176,106.175-106.176s106.175,47.63,106.175,106.176
			S314.485,414.283,255.94,414.283z"/>
	</g>
</g>
<g>
</g>
<g>
</g>
<g>
</g>
<g>
</g>
<g>
</g>
<g>
</g>
<g>
</g>
<g>
</g>
<g>
</g>
<g>
</g>
<g>
</g>
<g>
</g>
<g>
</g>
<g>
</g>
<g>
</g>
</svg>
